<?xml version="1.0" encoding="UTF-8" standalone="no"?>
<!-- Created with Inkscape (http://www.inkscape.org/) -->

<svg
   xmlns:dc="http://purl.org/dc/elements/1.1/"
   xmlns:cc="http://creativecommons.org/ns#"
   xmlns:rdf="http://www.w3.org/1999/02/22-rdf-syntax-ns#"
   xmlns:svg="http://www.w3.org/2000/svg"
   xmlns="http://www.w3.org/2000/svg"
   xmlns:sodipodi="http://sodipodi.sourceforge.net/DTD/sodipodi-0.dtd"
   xmlns:inkscape="http://www.inkscape.org/namespaces/inkscape"
   width="576"
   height="192"
   viewBox="0 0 576 192"
   id="svg2"
   version="1.1"
   inkscape:version="0.91 r13725"
   sodipodi:docname="icons.svg"
   inkscape:export-filename="/home/eduardo/Documentos/Projetos/Universal Data/toolkit/img/icons.png"
   inkscape:export-xdpi="90"
   inkscape:export-ydpi="90">
  <defs
     id="defs4" />
  <sodipodi:namedview
     id="base"
     pagecolor="#ffffff"
     bordercolor="#666666"
     borderopacity="1.0"
     inkscape:pageopacity="0.0"
     inkscape:pageshadow="2"
     inkscape:zoom="2.6414154"
     inkscape:cx="248.64587"
     inkscape:cy="63.905629"
     inkscape:document-units="px"
     inkscape:current-layer="layer1"
     showgrid="false"
     units="px"
     inkscape:window-width="1366"
     inkscape:window-height="744"
     inkscape:window-x="0"
     inkscape:window-y="24"
     inkscape:window-maximized="1" />
  <metadata
     id="metadata7">
    <rdf:RDF>
      <cc:Work
         rdf:about="">
        <dc:format>image/svg+xml</dc:format>
        <dc:type
           rdf:resource="http://purl.org/dc/dcmitype/StillImage" />
        <dc:title />
      </cc:Work>
    </rdf:RDF>
  </metadata>
  <g
     inkscape:label="Camada 1"
     inkscape:groupmode="layer"
     id="layer1"
     transform="translate(0,-860.36216)">
    <g
       id="g4416"
       transform="translate(-8,0)">
      <g
         transform="translate(391.00742,0.0488765)"
         id="g4231">
        <path
           style="opacity:1;fill:#000000;fill-opacity:1;stroke:#000000;stroke-width:1.69151747;stroke-linecap:square;stroke-linejoin:bevel;stroke-miterlimit:4;stroke-dasharray:none;stroke-dashoffset:0;stroke-opacity:1"
           d="m 148.71433,914.88649 13.30848,0 0,13.30848 -13.30848,0 z"
           id="rect4138"
           inkscape:connector-curvature="0" />
      </g>
      <path
         inkscape:connector-curvature="0"
         id="path4154"
         d="m 435.85314,921.58961 93.57142,0"
         style="fill:none;fill-rule:evenodd;stroke:#000000;stroke-width:9.25315666;stroke-linecap:butt;stroke-linejoin:miter;stroke-miterlimit:4;stroke-dasharray:none;stroke-opacity:1" />
      <path
         style="opacity:1;fill:#000000;fill-opacity:1;stroke:#000000;stroke-width:1.69151747;stroke-linecap:square;stroke-linejoin:bevel;stroke-miterlimit:4;stroke-dasharray:none;stroke-dashoffset:0;stroke-opacity:1"
         d="m 539.72175,938.14965 13.30848,0 0,13.30849 -13.30848,0 z"
         id="path4163"
         inkscape:connector-curvature="0" />
      <path
         style="fill:none;fill-rule:evenodd;stroke:#000000;stroke-width:9.25315666;stroke-linecap:butt;stroke-linejoin:miter;stroke-miterlimit:4;stroke-dasharray:none;stroke-opacity:1"
         d="m 435.85314,944.80389 93.57142,0"
         id="path4165"
         inkscape:connector-curvature="0" />
      <path
         inkscape:connector-curvature="0"
         id="path4169"
         d="m 539.72175,961.36395 13.30848,0 0,13.30848 -13.30848,0 z"
         style="opacity:1;fill:#000000;fill-opacity:1;stroke:#000000;stroke-width:1.69151747;stroke-linecap:square;stroke-linejoin:bevel;stroke-miterlimit:4;stroke-dasharray:none;stroke-dashoffset:0;stroke-opacity:1" />
      <path
         inkscape:connector-curvature="0"
         id="path4171"
         d="m 435.85314,968.01819 93.57142,0"
         style="fill:none;fill-rule:evenodd;stroke:#000000;stroke-width:9.25315666;stroke-linecap:butt;stroke-linejoin:miter;stroke-miterlimit:4;stroke-dasharray:none;stroke-opacity:1" />
      <path
         style="opacity:1;fill:#000000;fill-opacity:1;stroke:#000000;stroke-width:1.69151747;stroke-linecap:square;stroke-linejoin:bevel;stroke-miterlimit:4;stroke-dasharray:none;stroke-dashoffset:0;stroke-opacity:1"
         d="m 539.72175,984.57823 13.30848,0 0,13.30848 -13.30848,0 z"
         id="path4175"
         inkscape:connector-curvature="0" />
      <path
         style="fill:none;fill-rule:evenodd;stroke:#000000;stroke-width:9.25315666;stroke-linecap:butt;stroke-linejoin:miter;stroke-miterlimit:4;stroke-dasharray:none;stroke-opacity:1"
         d="m 435.85314,991.23247 93.57142,0"
         id="path4177"
         inkscape:connector-curvature="0" />
      <g
         transform="translate(400.64122,31.736837)"
         id="g4240">
        <g
           id="g4234"
           transform="translate(-9.6428572,-31.785714)">
          <path
             style="opacity:1;fill:#000000;fill-opacity:1;stroke:#000000;stroke-width:1.69151747;stroke-linecap:square;stroke-linejoin:bevel;stroke-miterlimit:4;stroke-dasharray:none;stroke-dashoffset:0;stroke-opacity:1"
             d="m 148.71433,914.88649 13.30848,0 0,13.30848 -13.30848,0 z"
             id="path4236"
             inkscape:connector-curvature="0" />
        </g>
        <path
           style="fill:#ffffff;fill-rule:evenodd;stroke:#ffffff;stroke-width:0.68057412px;stroke-linecap:butt;stroke-linejoin:miter;stroke-opacity:1"
           d="m 140.71197,890.28726 c 0,0 -0.7747,-0.64808 -0.16459,-1.24227 0.66107,-0.64431 1.2514,0.18386 1.2514,0.18386 l 2.22358,2.20848 5.52041,-5.3763 c 0,0 0.78943,-0.75654 1.353,-0.18805 0.64758,0.65297 -0.20684,1.36489 -0.20684,1.36489 l -6.6435,6.47009 z"
           id="path4238"
           inkscape:connector-curvature="0"
           sodipodi:nodetypes="cscccsccc" />
      </g>
    </g>
    <path
       style="opacity:1;fill:#000000;fill-opacity:1;stroke:#000000;stroke-width:5.23358154;stroke-linecap:square;stroke-linejoin:bevel;stroke-miterlimit:4;stroke-dasharray:none;stroke-dashoffset:0;stroke-opacity:1"
       d="M 288 35.896484 C 279.4507 35.896484 286.69752 45.810932 278.3125 47.472656 C 269.92748 49.13438 272.81258 37.211117 264.91406 40.470703 C 257.01554 43.730289 267.51864 50.129145 260.41016 54.861328 C 253.30168 59.593517 251.38706 47.477073 245.3418 53.5 C 239.29653 59.522932 251.45872 61.429499 246.70898 68.511719 C 241.95925 75.593933 235.5373 65.130658 232.26562 73 C 228.99395 80.869337 240.96085 77.993614 239.29297 86.347656 C 237.62508 94.701703 227.67383 87.482288 227.67383 96 C 227.67383 104.51771 237.62508 97.298306 239.29297 105.65234 C 240.96085 114.00639 228.99395 111.13066 232.26562 119 C 235.53731 126.86934 241.95925 116.40606 246.70898 123.48828 C 251.45872 130.57052 239.29653 132.4771 245.3418 138.5 C 251.38706 144.52295 253.30168 132.40644 260.41016 137.13867 C 267.51864 141.87085 257.01554 148.26974 264.91406 151.5293 C 272.81258 154.78891 269.92748 142.86562 278.3125 144.52734 C 286.69752 146.18907 279.4507 156.10352 288 156.10352 C 296.5493 156.10352 289.30248 146.18907 297.6875 144.52734 C 306.07252 142.86562 303.18742 154.78891 311.08594 151.5293 C 318.98446 148.26974 308.48136 141.87085 315.58984 137.13867 C 322.69833 132.40644 324.61294 144.52295 330.6582 138.5 C 336.70347 132.4771 324.54128 130.57052 329.29102 123.48828 C 334.04075 116.40606 340.46269 126.86934 343.73438 119 C 347.00604 111.13066 335.03915 114.00639 336.70703 105.65234 C 338.37492 97.298306 348.32617 104.51771 348.32617 96 C 348.32617 87.482288 338.37492 94.701703 336.70703 86.347656 C 335.03915 77.993614 347.00604 80.869337 343.73438 73 C 340.46269 65.130658 334.04075 75.593933 329.29102 68.511719 C 324.54128 61.429499 336.70347 59.522932 330.6582 53.5 C 324.61294 47.477073 322.69833 59.593517 315.58984 54.861328 C 308.48136 50.129145 318.98446 43.730289 311.08594 40.470703 C 303.18742 37.211117 306.07252 49.13438 297.6875 47.472656 C 289.30248 45.810932 296.5493 35.896484 288 35.896484 z M 288 57.224609 C 309.41376 57.225134 326.77291 74.584286 326.77344 95.998047 C 326.77544 117.41333 309.41529 134.77486 288 134.77539 C 266.58395 134.77594 249.22298 117.41409 249.22461 95.998047 C 249.22514 74.583524 266.58548 57.224057 288 57.224609 z M 288 72.8125 A 23.188325 23.188325 0 0 0 264.8125 96 A 23.188325 23.188325 0 0 0 288 119.1875 A 23.188325 23.188325 0 0 0 311.1875 96 A 23.188325 23.188325 0 0 0 288 72.8125 z "
       transform="translate(0,860.36216)"
       id="path4293" />
    <g
       id="g4180">
      <path
         sodipodi:nodetypes="sscscszccsscccssccs"
         inkscape:connector-curvature="0"
         id="path4382"
         transform="translate(0,860.36216)"
         d="m 68.05215,54.168246 c -0.598684,-0.04519 -1.123899,0.25122 -1.789442,0.80189 -12.092899,10.005654 -19.158188,24.907049 -19.18263,40.691973 4.57e-4,29.229601 23.696185,52.924451 52.925782,52.923831 29.22883,-4.6e-4 52.92337,-23.695 52.92383,-52.923831 -0.009,-16.029412 -6.6252,-30.59906 -19.08796,-40.627477 -0.23839,-0.191824 -0.48584,-0.572514 -1.16647,-0.429131 -0.68064,0.143383 -1.00799,1.09263 -1.00799,1.09263 l -3.92205,8.056932 c 0,0 -0.42556,0.812695 -0.34656,1.272089 0.10576,0.614972 0.39141,0.799608 0.74337,1.134701 8.06038,7.674127 12.65269,18.328699 12.66656,29.500256 3.4e-4,22.535181 -18.26755,40.803941 -40.80273,40.804691 -22.535947,3.4e-4 -40.805026,-18.26874 -40.804688,-40.804691 0.01364,-11.802439 5.135929,-23.004979 14.017186,-30.733323 0.227489,-0.197959 0.377485,-0.350139 0.444309,-0.620471 0.08654,-0.350097 -0.09,-0.623911 -0.09,-0.623911 L 69.08603,54.894102 c 0,0 -0.344072,-0.673785 -1.03388,-0.725856 z"
         style="opacity:1;fill:#000000;fill-opacity:1;stroke:none;stroke-width:11.22619438;stroke-linecap:square;stroke-linejoin:bevel;stroke-miterlimit:4;stroke-dasharray:none;stroke-dashoffset:0;stroke-opacity:1" />
      <rect
         ry="5.3750081"
         y="909.92542"
         x="93.892845"
         height="44.061646"
         width="12.224072"
         id="rect4386"
         style="opacity:1;fill:#000000;fill-opacity:1;stroke:none;stroke-width:2.70600009;stroke-linecap:square;stroke-linejoin:bevel;stroke-miterlimit:4;stroke-dasharray:none;stroke-dashoffset:0;stroke-opacity:1" />
    </g>
  </g>
</svg>
