<?xml version="1.0" encoding="UTF-8" standalone="no"?>
<svg id="svg2" xmlns:rdf="http://www.w3.org/1999/02/22-rdf-syntax-ns#" xmlns="http://www.w3.org/2000/svg" height="192" width="576" version="1.1" xmlns:cc="http://creativecommons.org/ns#" xmlns:dc="http://purl.org/dc/elements/1.1/" viewBox="0 0 576 192">
<g id="layer1" transform="translate(0 -860.36)">
<g id="g4416" transform="translate(-8)">
<g id="g4231" transform="translate(391.01 .048876)">
<path id="rect4138" stroke-linejoin="bevel" d="m148.71 914.89h13.308v13.308h-13.308z" stroke="#000" stroke-linecap="square" stroke-width="1.6915"/>
</g>
<g stroke="#000">
<path id="path4154" d="m435.85 921.59h93.571" stroke-width="9.2532" fill="none"/>
<path id="path4163" stroke-linejoin="bevel" d="m539.72 938.15h13.308v13.308h-13.308z" stroke-linecap="square" stroke-width="1.6915"/>
<path id="path4165" d="m435.85 944.8h93.571" stroke-width="9.2532" fill="none"/>
<path id="path4169" stroke-linejoin="bevel" d="m539.72 961.36h13.308v13.308h-13.308z" stroke-linecap="square" stroke-width="1.6915"/>
<path id="path4171" d="m435.85 968.02h93.571" stroke-width="9.2532" fill="none"/>
<path id="path4175" stroke-linejoin="bevel" d="m539.72 984.58h13.308v13.308h-13.308z" stroke-linecap="square" stroke-width="1.6915"/>
<path id="path4177" d="m435.85 991.23h93.571" stroke-width="9.2532" fill="none"/>
</g>
<g id="g4240" transform="translate(400.64 31.737)">
<g id="g4234" transform="translate(-9.6429 -31.786)">
<path id="path4236" stroke-linejoin="bevel" d="m148.71 914.89h13.308v13.308h-13.308z" stroke="#000" stroke-linecap="square" stroke-width="1.6915"/>
</g>
<path id="path4238" d="m140.71 890.29s-0.7747-0.64808-0.16459-1.2423c0.66107-0.64431 1.2514 0.18386 1.2514 0.18386l2.2236 2.2085 5.5204-5.3763s0.78943-0.75654 1.353-0.18805c0.64758 0.65297-0.20684 1.3649-0.20684 1.3649l-6.6435 6.4701z" fill-rule="evenodd" stroke="#fff" stroke-width=".68057px" fill="#fff"/>
</g>
</g>
<path id="path4293" stroke-linejoin="bevel" d="m288 35.896c-8.55 0-1.3 9.915-9.69 11.577-8.38 1.661-5.5-10.262-13.4-7.002-7.89 3.259 2.61 9.658-4.5 14.39-7.11 4.733-9.02-7.384-15.07-1.361-6.04 6.023 6.12 7.929 1.37 15.012-4.75 7.082-11.17-3.381-14.44 4.488-3.28 7.869 8.69 4.994 7.02 13.348-1.66 8.354-11.62 1.134-11.62 9.652 0 8.52 9.96 1.298 11.62 9.65 1.67 8.36-10.3 5.48-7.02 13.35 3.27 7.87 9.69-2.59 14.44 4.49s-7.41 8.99-1.37 15.01c6.05 6.02 7.96-6.09 15.07-1.36s-3.39 11.13 4.5 14.39c7.9 3.26 5.02-8.66 13.4-7 8.39 1.66 1.14 11.57 9.69 11.57s1.3-9.91 9.69-11.57c8.38-1.66 5.5 10.26 13.4 7 7.89-3.26-2.61-9.66 4.5-14.39s9.02 7.38 15.07 1.36c6.04-6.02-6.12-7.93-1.37-15.01s11.17 3.38 14.44-4.49c3.28-7.87-8.69-4.99-7.02-13.35 1.66-8.352 11.62-1.13 11.62-9.65 0-8.518-9.96-1.298-11.62-9.652-1.67-8.354 10.3-5.479 7.02-13.348-3.27-7.869-9.69 2.594-14.44-4.488-4.75-7.083 7.41-8.989 1.37-15.012-6.05-6.023-7.96 6.094-15.07 1.361-7.11-4.732 3.39-11.131-4.5-14.39-7.9-3.26-5.02 8.663-13.4 7.002-8.39-1.662-1.14-11.577-9.69-11.577zm0 21.329c21.41 0 38.77 17.359 38.77 38.773 0.01 21.412-17.35 38.772-38.77 38.782-21.42 0-38.78-17.37-38.78-38.782 0.01-21.414 17.37-38.774 38.78-38.773zm0 15.587a23.188 23.188 0 0 0 -23.19 23.188 23.188 23.188 0 0 0 23.19 23.19 23.188 23.188 0 0 0 23.19 -23.19 23.188 23.188 0 0 0 -23.19 -23.188z" transform="translate(0 860.36)" stroke="#000" stroke-linecap="square" stroke-width="5.2336"/>
<g id="g4180">
<path id="path4382" d="m68.052 54.168c-0.59868-0.04519-1.1239 0.25122-1.7894 0.80189-12.093 10.006-19.158 24.907-19.183 40.692 0.000457 29.23 23.696 52.924 52.926 52.924 29.229-0.00046 52.923-23.695 52.924-52.924-0.009-16.029-6.6252-30.599-19.088-40.627-0.23839-0.19182-0.48584-0.57251-1.1665-0.42913-0.68064 0.14338-1.008 1.0926-1.008 1.0926l-3.922 8.0569s-0.42556 0.8127-0.34656 1.2721c0.10576 0.61497 0.39141 0.79961 0.74337 1.1347 8.0604 7.6741 12.653 18.329 12.667 29.5 0.00034 22.535-18.268 40.804-40.803 40.805-22.536 0.00034-40.805-18.269-40.805-40.805 0.01364-11.802 5.1359-23.005 14.017-30.733 0.22749-0.19796 0.37748-0.35014 0.44431-0.62047 0.08654-0.3501-0.09-0.62391-0.09-0.62391l-4.491-8.791s-0.34407-0.67378-1.0339-0.72586z" transform="translate(0 860.36)"/>
<rect id="rect4386" ry="5.375" height="44.062" width="12.224" y="909.93" x="93.893"/>
</g>
</g>
</svg>
